<?xml version="1.0" encoding="UTF-8" standalone="no"?>
<!DOCTYPE svg PUBLIC "-//W3C//DTD SVG 1.1//EN" "http://www.w3.org/Graphics/SVG/1.1/DTD/svg11.dtd">
<svg width="100%" height="100%" viewBox="0 0 1080 1080" version="1.1" xmlns="http://www.w3.org/2000/svg" xmlns:xlink="http://www.w3.org/1999/xlink" xml:space="preserve" xmlns:serif="http://www.serif.com/" style="fill-rule:evenodd;clip-rule:evenodd;stroke-linejoin:round;stroke-miterlimit:2;">
    <g transform="matrix(0.873362,0,0,1,116.855895,50.25)">
        <g transform="matrix(0.520833,0,0,0.490196,53.25,103.27451)">
            <rect x="180" y="232" width="192" height="561" style="fill:rgb(235,235,235);"/>
        </g>
        <g transform="matrix(1.333333,0,0,1.190476,-193,28.904762)">
            <ellipse cx="292.5" cy="158" rx="37.5" ry="42" style="fill:rgb(235,235,235);"/>
        </g>
        <g transform="matrix(1.333333,0,0,1.190476,-193,302.404762)">
            <ellipse cx="292.5" cy="158" rx="37.5" ry="42" style="fill:rgb(235,235,235);"/>
        </g>
    </g>
    <g transform="matrix(0.873362,0,0,1,217.292576,646.25)">
        <g transform="matrix(0.520833,0,0,0.142602,53.25,183.916221)">
            <rect x="180" y="232" width="192" height="561" style="fill:rgb(235,235,235);"/>
        </g>
        <g transform="matrix(1.333333,0,0,1.190476,-193,28.904762)">
            <ellipse cx="292.5" cy="158" rx="37.5" ry="42" style="fill:rgb(235,235,235);"/>
        </g>
        <g transform="matrix(1.333333,0,0,1.190476,-193,108.904762)">
            <ellipse cx="292.5" cy="158" rx="37.5" ry="42" style="fill:rgb(235,235,235);"/>
        </g>
    </g>
    <g transform="matrix(0.873362,0,0,1,518.60262,646.25)">
        <g transform="matrix(0.520833,0,0,0.142602,53.25,183.916221)">
            <rect x="180" y="232" width="192" height="561" style="fill:rgb(235,235,235);"/>
        </g>
        <g transform="matrix(1.333333,0,0,1.190476,-193,28.904762)">
            <ellipse cx="292.5" cy="158" rx="37.5" ry="42" style="fill:rgb(235,235,235);"/>
        </g>
        <g transform="matrix(1.333333,0,0,1.190476,-193,108.904762)">
            <ellipse cx="292.5" cy="158" rx="37.5" ry="42" style="fill:rgb(235,235,235);"/>
        </g>
    </g>
    <g transform="matrix(0.873362,0,0,1,119.475983,553.75)">
        <g transform="matrix(0.520833,0,0,0.222816,53.25,165.306595)">
            <rect x="180" y="232" width="192" height="561" style="fill:rgb(235,235,235);"/>
        </g>
        <g transform="matrix(1.333333,0,0,1.190476,-193,28.904762)">
            <ellipse cx="292.5" cy="158" rx="37.5" ry="42" style="fill:rgb(235,235,235);"/>
        </g>
        <g transform="matrix(1.333333,0,0,1.190476,-193,153.904762)">
            <ellipse cx="292.5" cy="158" rx="37.5" ry="42" style="fill:rgb(235,235,235);"/>
        </g>
    </g>
    <g transform="matrix(0.873362,0,0,1,518.60262,-50.75)">
        <g transform="matrix(0.520833,0,0,0.178253,53.25,175.645276)">
            <rect x="180" y="232" width="192" height="561" style="fill:rgb(235,235,235);"/>
        </g>
        <g transform="matrix(1.333333,0,0,1.190476,-193,28.904762)">
            <ellipse cx="292.5" cy="158" rx="37.5" ry="42" style="fill:rgb(235,235,235);"/>
        </g>
        <g transform="matrix(1.333333,0,0,1.190476,-193,128.904762)">
            <ellipse cx="292.5" cy="158" rx="37.5" ry="42" style="fill:rgb(235,235,235);"/>
        </g>
    </g>
    <g transform="matrix(0.873362,0,0,1,319.039301,696.25)">
        <g transform="matrix(0.520833,0,0,0.089127,53.25,196.322638)">
            <rect x="180" y="232" width="192" height="561" style="fill:rgb(235,235,235);"/>
        </g>
        <g transform="matrix(1.333333,0,0,1.190476,-193,28.904762)">
            <ellipse cx="292.5" cy="158" rx="37.5" ry="42" style="fill:rgb(235,235,235);"/>
        </g>
        <g transform="matrix(1.333333,0,0,1.190476,-193,81.404762)">
            <ellipse cx="292.5" cy="158" rx="37.5" ry="42" style="fill:rgb(235,235,235);"/>
        </g>
    </g>
    <g transform="matrix(0.873362,0,0,1,418.165939,696.25)">
        <g transform="matrix(0.520833,0,0,0.089127,53.25,196.322638)">
            <rect x="180" y="232" width="192" height="561" style="fill:rgb(235,235,235);"/>
        </g>
        <g transform="matrix(1.333333,0,0,1.190476,-193,28.904762)">
            <ellipse cx="292.5" cy="158" rx="37.5" ry="42" style="fill:rgb(235,235,235);"/>
        </g>
        <g transform="matrix(1.333333,0,0,1.190476,-193,81.404762)">
            <ellipse cx="292.5" cy="158" rx="37.5" ry="42" style="fill:rgb(235,235,235);"/>
        </g>
    </g>
    <g transform="matrix(0.873362,0,0,1,418.165939,-102.75)">
        <g transform="matrix(0.520833,0,0,0.178253,53.25,175.645276)">
            <rect x="180" y="232" width="192" height="561" style="fill:rgb(235,235,235);"/>
        </g>
        <g transform="matrix(1.333333,0,0,1.190476,-193,28.904762)">
            <ellipse cx="292.5" cy="158" rx="37.5" ry="42" style="fill:rgb(235,235,235);"/>
        </g>
        <g transform="matrix(1.333333,0,0,1.190476,-193,128.904762)">
            <ellipse cx="292.5" cy="158" rx="37.5" ry="42" style="fill:rgb(235,235,235);"/>
        </g>
    </g>
    <g transform="matrix(0.873362,0,0,1,317.729258,-102.75)">
        <g transform="matrix(0.520833,0,0,0.178253,53.25,175.645276)">
            <rect x="180" y="232" width="192" height="561" style="fill:rgb(235,235,235);"/>
        </g>
        <g transform="matrix(1.333333,0,0,1.190476,-193,28.904762)">
            <ellipse cx="292.5" cy="158" rx="37.5" ry="42" style="fill:rgb(235,235,235);"/>
        </g>
        <g transform="matrix(1.333333,0,0,1.190476,-193,128.904762)">
            <ellipse cx="292.5" cy="158" rx="37.5" ry="42" style="fill:rgb(235,235,235);"/>
        </g>
    </g>
    <g transform="matrix(0.873362,0,0,1,217.292576,-50.75)">
        <g transform="matrix(0.520833,0,0,0.178253,53.25,175.645276)">
            <rect x="180" y="232" width="192" height="561" style="fill:rgb(235,235,235);"/>
        </g>
        <g transform="matrix(1.333333,0,0,1.190476,-193,28.904762)">
            <ellipse cx="292.5" cy="158" rx="37.5" ry="42" style="fill:rgb(235,235,235);"/>
        </g>
        <g transform="matrix(1.333333,0,0,1.190476,-193,128.904762)">
            <ellipse cx="292.5" cy="158" rx="37.5" ry="42" style="fill:rgb(235,235,235);"/>
        </g>
    </g>
    <g transform="matrix(0.873362,0,0,-1,518.60262,823.25)">
        <g transform="matrix(0.520833,0,0,0.178253,53.25,175.645276)">
            <rect x="180" y="232" width="192" height="561" style="fill:rgb(235,235,235);"/>
        </g>
        <g transform="matrix(1.333333,0,0,1.190476,-193,28.904762)">
            <ellipse cx="292.5" cy="158" rx="37.5" ry="42" style="fill:rgb(235,235,235);"/>
        </g>
        <g transform="matrix(1.333333,0,0,1.190476,-193,128.904762)">
            <ellipse cx="292.5" cy="158" rx="37.5" ry="42" style="fill:rgb(235,235,235);"/>
        </g>
    </g>
    <g transform="matrix(0.873362,0,0,-1,418.165939,875.25)">
        <g transform="matrix(0.520833,0,0,0.178253,53.25,175.645276)">
            <rect x="180" y="232" width="192" height="561" style="fill:rgb(235,235,235);"/>
        </g>
        <g transform="matrix(1.333333,0,0,1.190476,-193,28.904762)">
            <ellipse cx="292.5" cy="158" rx="37.5" ry="42" style="fill:rgb(235,235,235);"/>
        </g>
        <g transform="matrix(1.333333,0,0,1.190476,-193,128.904762)">
            <ellipse cx="292.5" cy="158" rx="37.5" ry="42" style="fill:rgb(235,235,235);"/>
        </g>
    </g>
    <g transform="matrix(0.873362,0,0,-1,317.729258,875.25)">
        <g transform="matrix(0.520833,0,0,0.178253,53.25,175.645276)">
            <rect x="180" y="232" width="192" height="561" style="fill:rgb(235,235,235);"/>
        </g>
        <g transform="matrix(1.333333,0,0,1.190476,-193,28.904762)">
            <ellipse cx="292.5" cy="158" rx="37.5" ry="42" style="fill:rgb(235,235,235);"/>
        </g>
        <g transform="matrix(1.333333,0,0,1.190476,-193,128.904762)">
            <ellipse cx="292.5" cy="158" rx="37.5" ry="42" style="fill:rgb(235,235,235);"/>
        </g>
    </g>
    <g transform="matrix(0.873362,0,0,-1,217.292576,823.25)">
        <g transform="matrix(0.520833,0,0,0.178253,53.25,175.645276)">
            <rect x="180" y="232" width="192" height="561" style="fill:rgb(235,235,235);"/>
        </g>
        <g transform="matrix(1.333333,0,0,1.190476,-193,28.904762)">
            <ellipse cx="292.5" cy="158" rx="37.5" ry="42" style="fill:rgb(235,235,235);"/>
        </g>
        <g transform="matrix(1.333333,0,0,1.190476,-193,128.904762)">
            <ellipse cx="292.5" cy="158" rx="37.5" ry="42" style="fill:rgb(235,235,235);"/>
        </g>
    </g>
    <g transform="matrix(0.873362,0,0,1,619.039301,48.75)">
        <g transform="matrix(0.520833,0,0,1.069519,53.25,-31.128342)">
            <rect x="180" y="232" width="192" height="561" style="fill:rgb(235,235,235);"/>
        </g>
        <g transform="matrix(1.333333,0,0,1.190476,-193,28.904762)">
            <ellipse cx="292.5" cy="158" rx="37.5" ry="42" style="fill:rgb(235,235,235);"/>
        </g>
        <g transform="matrix(1.333333,0,0,1.190476,-193,628.904762)">
            <ellipse cx="292.5" cy="158" rx="37.5" ry="42" style="fill:rgb(235,235,235);"/>
        </g>
    </g>
</svg>
